<svg xmlns="http://www.w3.org/2000/svg" xmlns:xlink="http://www.w3.org/1999/xlink" id="processonSvg1000" viewBox="195.01388549804688 11.031242370605469 1262.0 606.7777786254883" width="1262.0" height="606.7777786254883"><defs id="ProcessOnDefs1001"><marker id="ProcessOnMarker1015" markerUnits="userSpaceOnUse" orient="auto" markerWidth="16.23606797749979" markerHeight="10.550836550532098" viewBox="-1.0 -1.3763819204711736 16.23606797749979 10.550836550532098" refX="-1.0" refY="3.8990363547948754"><path id="ProcessOnPath1016" d="M12.0 3.8990363547948754L0.0 7.798072709589751V0.0Z" stroke="#323232" stroke-width="2.0" fill="#323232" transform="matrix(1.0,0.0,0.0,1.0,0.0,0.0)"/></marker><marker id="ProcessOnMarker1026" markerUnits="userSpaceOnUse" orient="auto" markerWidth="16.23606797749979" markerHeight="10.550836550532098" viewBox="-1.0 -1.3763819204711736 16.23606797749979 10.550836550532098" refX="-1.0" refY="3.8990363547948754"><path id="ProcessOnPath1027" d="M12.0 3.8990363547948754L0.0 7.798072709589751V0.0Z" stroke="#323232" stroke-width="2.0" fill="#323232" transform="matrix(1.0,0.0,0.0,1.0,0.0,0.0)"/></marker><marker id="ProcessOnMarker1037" markerUnits="userSpaceOnUse" orient="auto" markerWidth="16.23606797749979" markerHeight="10.550836550532098" viewBox="-1.0 -1.3763819204711736 16.23606797749979 10.550836550532098" refX="-1.0" refY="3.8990363547948754"><path id="ProcessOnPath1038" d="M12.0 3.8990363547948754L0.0 7.798072709589751V0.0Z" stroke="#323232" stroke-width="2.0" fill="#323232" transform="matrix(1.0,0.0,0.0,1.0,0.0,0.0)"/></marker><marker id="ProcessOnMarker1044" markerUnits="userSpaceOnUse" orient="auto" markerWidth="16.23606797749979" markerHeight="10.550836550532098" viewBox="-1.0 -1.3763819204711736 16.23606797749979 10.550836550532098" refX="-1.0" refY="3.8990363547948754"><path id="ProcessOnPath1045" d="M12.0 3.8990363547948754L0.0 7.798072709589751V0.0Z" stroke="#323232" stroke-width="2.0" fill="#323232" transform="matrix(1.0,0.0,0.0,1.0,0.0,0.0)"/></marker><marker id="ProcessOnMarker1056" markerUnits="userSpaceOnUse" orient="auto" markerWidth="16.23606797749979" markerHeight="10.550836550532098" viewBox="-1.0 -1.3763819204711736 16.23606797749979 10.550836550532098" refX="-1.0" refY="3.8990363547948754"><path id="ProcessOnPath1057" d="M12.0 3.8990363547948754L0.0 7.798072709589751V0.0Z" stroke="#323232" stroke-width="2.0" fill="#323232" transform="matrix(1.0,0.0,0.0,1.0,0.0,0.0)"/></marker><marker id="ProcessOnMarker1063" markerUnits="userSpaceOnUse" orient="auto" markerWidth="16.23606797749979" markerHeight="10.550836550532098" viewBox="-1.0 -1.3763819204711736 16.23606797749979 10.550836550532098" refX="-1.0" refY="3.8990363547948754"><path id="ProcessOnPath1064" d="M12.0 3.8990363547948754L0.0 7.798072709589751V0.0Z" stroke="#323232" stroke-width="2.0" fill="#323232" transform="matrix(1.0,0.0,0.0,1.0,0.0,0.0)"/></marker><marker id="ProcessOnMarker1074" markerUnits="userSpaceOnUse" orient="auto" markerWidth="16.23606797749979" markerHeight="10.550836550532098" viewBox="-1.0 -1.3763819204711736 16.23606797749979 10.550836550532098" refX="-1.0" refY="3.8990363547948754"><path id="ProcessOnPath1075" d="M12.0 3.8990363547948754L0.0 7.798072709589751V0.0Z" stroke="#323232" stroke-width="2.0" fill="#323232" transform="matrix(1.0,0.0,0.0,1.0,0.0,0.0)"/></marker><marker id="ProcessOnMarker1088" markerUnits="userSpaceOnUse" orient="auto" markerWidth="16.23606797749979" markerHeight="10.550836550532098" viewBox="-1.0 -1.3763819204711736 16.23606797749979 10.550836550532098" refX="-1.0" refY="3.8990363547948754"><path id="ProcessOnPath1089" d="M12.0 3.8990363547948754L0.0 7.798072709589751V0.0Z" stroke="#323232" stroke-width="2.0" fill="#323232" transform="matrix(1.0,0.0,0.0,1.0,0.0,0.0)"/></marker><marker id="ProcessOnMarker1098" markerUnits="userSpaceOnUse" orient="auto" markerWidth="16.23606797749979" markerHeight="10.550836550532098" viewBox="-1.0 -1.3763819204711736 16.23606797749979 10.550836550532098" refX="-1.0" refY="3.8990363547948754"><path id="ProcessOnPath1099" d="M12.0 3.8990363547948754L0.0 7.798072709589751V0.0Z" stroke="#323232" stroke-width="2.0" fill="#323232" transform="matrix(1.0,0.0,0.0,1.0,0.0,0.0)"/></marker><marker id="ProcessOnMarker1110" markerUnits="userSpaceOnUse" orient="auto" markerWidth="16.23606797749979" markerHeight="10.550836550532098" viewBox="-1.0 -1.3763819204711736 16.23606797749979 10.550836550532098" refX="-1.0" refY="3.8990363547948754"><path id="ProcessOnPath1111" d="M12.0 3.8990363547948754L0.0 7.798072709589751V0.0Z" stroke="#323232" stroke-width="2.0" fill="#323232" transform="matrix(1.0,0.0,0.0,1.0,0.0,0.0)"/></marker></defs><g id="ProcessOnG1002"><path id="ProcessOnPath1003" d="M195.01388549804688 11.031242370605469H1457.0138854980469V617.8090209960938H195.01388549804688V11.031242370605469Z" fill="none"/><g id="ProcessOnG1004"><g id="ProcessOnG1005" transform="matrix(1.0,0.0,0.0,1.0,274.0138854980469,160.03124237060547)" opacity="1.0"><path id="ProcessOnPath1006" d="M0.0 31.0C0.0 -10.333333333333334 110.0 -10.333333333333334 110.0 31.0C110.0 72.33333333333333 0.0 72.33333333333333 0.0 31.0Z" stroke="#323232" stroke-width="2.0" stroke-dasharray="none" opacity="1.0" fill="#ff0000"/><g id="ProcessOnG1007" transform="matrix(1.0,0.0,0.0,1.0,10.0,22.875)"><text id="ProcessOnText1008" fill="#000000" font-size="13" x="44.0" y="13.325" font-family="微软雅黑" font-weight="normal" font-style="normal" text-decoration="none" family="微软雅黑" text-anchor="middle" size="13">created</text></g></g><g id="ProcessOnG1009" transform="matrix(1.0,0.0,0.0,1.0,620.0138854980469,165.53124237060547)" opacity="1.0"><path id="ProcessOnPath1010" d="M0.0 25.5C0.0 -8.5 105.0 -8.5 105.0 25.5C105.0 59.5 0.0 59.5 0.0 25.5Z" stroke="#323232" stroke-width="2.0" stroke-dasharray="none" opacity="1.0" fill="#ff0000"/><g id="ProcessOnG1011" transform="matrix(1.0,0.0,0.0,1.0,10.0,17.375)"><text id="ProcessOnText1012" fill="#000000" font-size="13" x="41.5" y="13.325" font-family="微软雅黑" font-weight="normal" font-style="normal" text-decoration="none" family="微软雅黑" text-anchor="middle" size="13">established</text></g></g><g id="ProcessOnG1013"><path id="ProcessOnPath1014" d="M384.0138854980469 191.03124237060547L502.0138854980469 191.03124237060547L502.0138854980469 191.03124237060547L604.777817520547 191.03124237060547" stroke="#323232" stroke-width="2.0" stroke-dasharray="none" fill="none" marker-end="url(#ProcessOnMarker1015)"/><g id="ProcessOnG1017" transform="matrix(1.0,0.0,0.0,1.0,494.39585150929696,182.90624237060547)"><path id="ProcessOnPath1018" d="M0 0H201.00000000000006V16.25H0Z" fill="#fff" transform="matrix(1.0,0.0,0.0,1.0,-100.50000000000003,0.0)"/><text id="ProcessOnText1019" fill="#000000" font-size="13" x="0.0" y="13.325" font-family="微软雅黑" font-weight="normal" font-style="normal" text-decoration="none" family="微软雅黑" text-anchor="middle" size="13">ChaincodeMessage_REGISTERED</text></g></g><g id="ProcessOnG1020" transform="matrix(1.0,0.0,0.0,1.0,351.0138854980469,42.03124237060547)" opacity="1.0"><path id="ProcessOnPath1021" d="M36.0 48.0L0.0 11.424Q72.0 -11.424 144.0 11.424L108.0 48.0Q72.0 38.400000000000006 36.0 48.0Z" stroke="#323232" stroke-width="2.0" stroke-dasharray="none" opacity="1.0" fill="#33ff33"/><g id="ProcessOnG1022" transform="matrix(1.0,0.0,0.0,1.0,10.0,15.875)"><text id="ProcessOnText1023" fill="#000000" font-size="13" x="61.0" y="13.325" font-family="微软雅黑" font-weight="normal" font-style="normal" text-decoration="none" family="微软雅黑" text-anchor="middle" size="13">beforeRegistered</text></g></g><g id="ProcessOnG1024"><path id="ProcessOnPath1025" d="M423.0138854980469 90.03124237060547C423.0138854980469 137.792314385375 465.6138854980469 147.63124237060546 484.95411543201516 173.78141242216822" stroke="#323232" stroke-width="2.0" stroke-dasharray="none" fill="none" marker-end="url(#ProcessOnMarker1026)"/><g id="ProcessOnG1028" transform="matrix(1.0,0.0,0.0,1.0,446.7314142397929,131.88541563258937)"><path id="ProcessOnPath1029" d="M0 0H46.0V16.25H0Z" fill="#fff" transform="matrix(1.0,0.0,0.0,1.0,-23.0,0.0)"/><text id="ProcessOnText1030" fill="#000000" font-size="13" x="0.0" y="13.325" font-family="微软雅黑" font-weight="normal" font-style="normal" text-decoration="none" family="微软雅黑" text-anchor="middle" size="13">before_</text></g></g><g id="ProcessOnG1031" transform="matrix(1.0,0.0,0.0,1.0,977.0138854980469,182.80902099609375)" opacity="1.0"><path id="ProcessOnPath1032" d="M0.0 28.61111068725586C0.0 -9.537036895751953 87.0 -9.537036895751953 87.0 28.61111068725586C87.0 66.75925827026367 0.0 66.75925827026367 0.0 28.61111068725586Z" stroke="#323232" stroke-width="2.0" stroke-dasharray="none" opacity="1.0" fill="#ff0000"/><g id="ProcessOnG1033" transform="matrix(1.0,0.0,0.0,1.0,10.0,20.48611068725586)"><text id="ProcessOnText1034" fill="#000000" font-size="13" x="32.5" y="13.325" font-family="微软雅黑" font-weight="normal" font-style="normal" text-decoration="none" family="微软雅黑" text-anchor="middle" size="13">ready</text></g></g><g id="ProcessOnG1035"><path id="ProcessOnPath1036" d="M725.0138854980469 191.03124237060547L966.6046043553666 197.41919779306247" stroke="#323232" stroke-width="2.0" stroke-dasharray="none" fill="none" marker-end="url(#ProcessOnMarker1037)"/><g id="ProcessOnG1039" transform="matrix(1.0,0.0,0.0,1.0,845.8092449267067,186.10022008183398)"><path id="ProcessOnPath1040" d="M0 0H167.0V16.25H0Z" fill="#fff" transform="matrix(1.0,0.0,0.0,1.0,-83.5,0.0)"/><text id="ProcessOnText1041" fill="#000000" font-size="13" x="0.0" y="13.325" font-family="微软雅黑" font-weight="normal" font-style="normal" text-decoration="none" family="微软雅黑" text-anchor="middle" size="13">ChaincodeMessage_READY</text></g></g><g id="ProcessOnG1042"><path id="ProcessOnPath1043" d="M762.9361992797043 409.56297101517816L690.271260819703 229.18270549045096" stroke="#323232" stroke-width="2.0" stroke-dasharray="none" fill="none" marker-end="url(#ProcessOnMarker1044)"/><g id="ProcessOnG1046" transform="matrix(1.0,0.0,0.0,1.0,726.6037300497037,311.2478382528146)"><path id="ProcessOnPath1047" d="M0 0H167.0V16.25H0Z" fill="#fff" transform="matrix(1.0,0.0,0.0,1.0,-83.5,0.0)"/><text id="ProcessOnText1048" fill="#000000" font-size="13" x="0.0" y="13.325" font-family="微软雅黑" font-weight="normal" font-style="normal" text-decoration="none" family="微软雅黑" text-anchor="middle" size="13">ChaincodeMessage_ERROR</text></g></g><g id="ProcessOnG1049" transform="matrix(0.8660254037844384,-0.5000000000000004,0.5000000000000004,0.8660254037844384,497.12286934666935,296.5456707854556)" opacity="1.0"><path id="ProcessOnPath1050" d="M20.0 45.0L0.0 10.709999999999999Q40.0 -10.709999999999999 80.0 10.709999999999999L60.0 45.0Q40.0 36.0 20.0 45.0Z" stroke="#323232" stroke-width="2.0" stroke-dasharray="none" opacity="1.0" fill="#33ff33"/><g id="ProcessOnG1051" transform="matrix(1.0,0.0,0.0,1.0,10.0,6.25)"><text id="ProcessOnText1052" fill="#000000" font-size="13" x="29.0" y="13.325" font-family="微软雅黑" font-weight="normal" font-style="normal" text-decoration="none" family="微软雅黑" text-anchor="middle" size="13">afterErro</text><text id="ProcessOnText1053" fill="#000000" font-size="13" x="29.0" y="29.575" font-family="微软雅黑" font-weight="normal" font-style="normal" text-decoration="none" family="微软雅黑" text-anchor="middle" size="13">r</text></g></g><g id="ProcessOnG1054"><path id="ProcessOnPath1055" d="M554.2638854980469 315.51681395575537C574.4437308845862 350.46933145412584 614.7138854980469 312.22547100466545 639.8003512084628 310.8595791587806" stroke="#323232" stroke-width="2.0" stroke-dasharray="none" fill="none" marker-end="url(#ProcessOnMarker1056)"/><g id="ProcessOnG1058" transform="matrix(1.0,0.0,0.0,1.0,595.192135731801,318.6826000613637)"><path id="ProcessOnPath1059" d="M0 0H35.0V16.25H0Z" fill="#fff" transform="matrix(1.0,0.0,0.0,1.0,-17.5,0.0)"/><text id="ProcessOnText1060" fill="#000000" font-size="13" x="0.0" y="13.325" font-family="微软雅黑" font-weight="normal" font-style="normal" text-decoration="none" family="微软雅黑" text-anchor="middle" size="13">after_</text></g></g><g id="ProcessOnG1061"><path id="ProcessOnPath1062" d="M775.0915717163895 478.4995137260328C730.0138854980469 597.8090209960938 975.0138854980469 465.80902099609375 818.5212153072653 440.3957863294678" stroke="#323232" stroke-width="2.0" stroke-dasharray="none" fill="none" marker-end="url(#ProcessOnMarker1063)"/><g id="ProcessOnG1065" transform="matrix(1.0,0.0,0.0,1.0,838.587012501492,505.59367825400795)"><path id="ProcessOnPath1066" d="M0 0H193.0V16.25H0Z" fill="#fff" transform="matrix(1.0,0.0,0.0,1.0,-96.5,0.0)"/><text id="ProcessOnText1067" fill="#000000" font-size="13" x="0.0" y="13.325" font-family="微软雅黑" font-weight="normal" font-style="normal" text-decoration="none" family="微软雅黑" text-anchor="middle" size="13">ChaincodeMessage_RESPONSE</text></g></g><g id="ProcessOnG1068" transform="matrix(1.0,0.0,0.0,1.0,996.0138854980469,425.03124237060547)" opacity="1.0"><path id="ProcessOnPath1069" d="M29.25 49.5L0.0 11.780999999999999Q58.5 -11.780999999999999 117.0 11.780999999999999L87.75 49.5Q58.5 39.6 29.25 49.5Z" stroke="#323232" stroke-width="2.0" stroke-dasharray="none" opacity="1.0" fill="#33ff33"/><g id="ProcessOnG1070" transform="matrix(1.0,0.0,0.0,1.0,10.0,16.625)"><text id="ProcessOnText1071" fill="#000000" font-size="13" x="47.5" y="13.325" font-family="微软雅黑" font-weight="normal" font-style="normal" text-decoration="none" family="微软雅黑" text-anchor="middle" size="13">afterResponse</text></g></g><g id="ProcessOnG1072"><path id="ProcessOnPath1073" d="M1054.5138854980469 474.53124237060547C1054.5138854980469 547.9312423706054 944.4138854980469 474.53124237060547 886.2499534755467 474.53124237060547" stroke="#323232" stroke-width="2.0" stroke-dasharray="none" fill="none" marker-end="url(#ProcessOnMarker1074)"/><g id="ProcessOnG1076" transform="matrix(1.0,0.0,0.0,1.0,992.1933939952344,493.93124237060545)"><path id="ProcessOnPath1077" d="M0 0H35.0V16.25H0Z" fill="#fff" transform="matrix(1.0,0.0,0.0,1.0,-17.5,0.0)"/><text id="ProcessOnText1078" fill="#000000" font-size="13" x="0.0" y="13.325" font-family="微软雅黑" font-weight="normal" font-style="normal" text-decoration="none" family="微软雅黑" text-anchor="middle" size="13">after_</text></g></g><g id="ProcessOnG1079" transform="matrix(1.0,0.0,0.0,1.0,1244.0138854980469,138.03124237060547)" opacity="1.0"><path id="ProcessOnPath1080" d="M48.25 114.5L0.0 27.250999999999998Q96.5 -27.250999999999998 193.0 27.250999999999998L144.75 114.5Q96.5 91.60000000000001 48.25 114.5Z" stroke="#323232" stroke-width="2.0" stroke-dasharray="none" opacity="1.0" fill="#33ff33"/><g id="ProcessOnG1081" transform="matrix(1.0,0.0,0.0,1.0,10.0,24.75)"><text id="ProcessOnText1082" fill="#000000" font-size="13" x="85.5" y="13.325" font-family="微软雅黑" font-weight="normal" font-style="normal" text-decoration="none" family="微软雅黑" text-anchor="middle" size="13">1 beforeInit</text><text id="ProcessOnText1083" fill="#000000" font-size="13" x="85.5" y="29.575" font-family="微软雅黑" font-weight="normal" font-style="normal" text-decoration="none" family="微软雅黑" text-anchor="middle" size="13">2 beforeTransaction</text><text id="ProcessOnText1084" fill="#000000" font-size="13" x="85.5" y="45.825" font-family="微软雅黑" font-weight="normal" font-style="normal" text-decoration="none" family="微软雅黑" text-anchor="middle" size="13">3 afterResponse</text><text id="ProcessOnText1085" fill="#000000" font-size="13" x="85.5" y="62.075" font-family="微软雅黑" font-weight="normal" font-style="normal" text-decoration="none" family="微软雅黑" text-anchor="middle" size="13">4 afterError</text></g></g><g id="ProcessOnG1086"><path id="ProcessOnPath1087" d="M1340.5138854980469 138.03124237060547C1340.5138854980469 37.01316306311185 1189.0138854980469 140.89790954589844 1103.2472266611007 142.52077730578242" stroke="#323232" stroke-width="2.0" stroke-dasharray="none" fill="none" marker-end="url(#ProcessOnMarker1088)"/><g id="ProcessOnG1090" transform="matrix(1.0,0.0,0.0,1.0,1254.0430531434286,69.28565468792735)"><path id="ProcessOnPath1091" d="M0 0H58.0V65.0H0Z" fill="#fff" transform="matrix(1.0,0.0,0.0,1.0,-29.0,0.0)"/><text id="ProcessOnText1092" fill="#000000" font-size="13" x="0.0" y="13.325" font-family="微软雅黑" font-weight="normal" font-style="normal" text-decoration="none" family="微软雅黑" text-anchor="middle" size="13">1 before_</text><text id="ProcessOnText1093" fill="#000000" font-size="13" x="0.0" y="29.575" font-family="微软雅黑" font-weight="normal" font-style="normal" text-decoration="none" family="微软雅黑" text-anchor="middle" size="13">2 before_</text><text id="ProcessOnText1094" fill="#000000" font-size="13" x="0.0" y="45.825" font-family="微软雅黑" font-weight="normal" font-style="normal" text-decoration="none" family="微软雅黑" text-anchor="middle" size="13">3 after_</text><text id="ProcessOnText1095" fill="#000000" font-size="13" x="0.0" y="62.075" font-family="微软雅黑" font-weight="normal" font-style="normal" text-decoration="none" family="微软雅黑" text-anchor="middle" size="13">4 after_</text></g></g><g id="ProcessOnG1096"><path id="ProcessOnPath1097" d="M791.6661874938194 417.5634889435582L977.5893238505979 241.34558072524757" stroke="#323232" stroke-width="2.0" stroke-dasharray="none" fill="none" marker-end="url(#ProcessOnMarker1098)"/><g id="ProcessOnG1100" transform="matrix(1.0,0.0,0.0,1.0,884.6277556722087,321.32953483440286)"><path id="ProcessOnPath1101" d="M0 0H204.0V16.25H0Z" fill="#fff" transform="matrix(1.0,0.0,0.0,1.0,-102.0,0.0)"/><text id="ProcessOnText1102" fill="#000000" font-size="13" x="0.0" y="13.325" font-family="微软雅黑" font-weight="normal" font-style="normal" text-decoration="none" family="微软雅黑" text-anchor="middle" size="13">ChaincodeMessage_COMPLETED</text></g></g><g id="ProcessOnG1103" transform="matrix(1.0,0.0,0.0,1.0,215.01388549804688,31.03124237060547)" opacity="1.0"><path id="ProcessOnPath1104" d="M0.0 0.0L100.0 0.0L100.0 70.0L0.0 70.0Z" stroke="#323232" stroke-width="2.0" stroke-dasharray="none" opacity="1.0" fill="#ff0000"/><g id="ProcessOnG1105" transform="matrix(1.0,0.0,0.0,1.0,10.0,18.75)"><text id="ProcessOnText1106" fill="#000000" font-size="13" x="39.0" y="13.325" font-family="微软雅黑" font-weight="normal" font-style="normal" text-decoration="none" family="微软雅黑" text-anchor="middle" size="13">chaincode</text><text id="ProcessOnText1107" fill="#000000" font-size="13" x="39.0" y="29.575" font-family="微软雅黑" font-weight="normal" font-style="normal" text-decoration="none" family="微软雅黑" text-anchor="middle" size="13">FSM状态机</text></g></g><g id="ProcessOnG1108"><path id="ProcessOnPath1109" d="M999.0399459280238 186.62809885845147C832.0138854980469 99.80902099609375 1245.0138854980469 112.80902099609375 1072.79204887643 192.01406125057298" stroke="#323232" stroke-width="2.0" stroke-dasharray="none" fill="none" marker-end="url(#ProcessOnMarker1110)"/><g id="ProcessOnG1112" transform="matrix(1.0,0.0,0.0,1.0,1037.8644134740919,86.43703576069836)"><path id="ProcessOnPath1113" d="M0 0H231.0V81.25H0Z" fill="#fff" transform="matrix(1.0,0.0,0.0,1.0,-115.5,0.0)"/><text id="ProcessOnText1114" fill="#000000" font-size="13" x="0.0" y="13.325" font-family="微软雅黑" font-weight="normal" font-style="normal" text-decoration="none" family="微软雅黑" text-anchor="middle" size="13">1 ChaincodeMessage_INIT</text><text id="ProcessOnText1115" fill="#000000" font-size="13" x="0.0" y="29.575" font-family="微软雅黑" font-weight="normal" font-style="normal" text-decoration="none" family="微软雅黑" text-anchor="middle" size="13">2 ChaincodeMessage_TRANSACTION</text><text id="ProcessOnText1116" fill="#000000" font-size="13" x="0.0" y="45.825" font-family="微软雅黑" font-weight="normal" font-style="normal" text-decoration="none" family="微软雅黑" text-anchor="middle" size="13">3 ChaincodeMessage_RESPONSE</text><text id="ProcessOnText1117" fill="#000000" font-size="13" x="0.0" y="62.075" font-family="微软雅黑" font-weight="normal" font-style="normal" text-decoration="none" family="微软雅黑" text-anchor="middle" size="13">4 ChaincodeMessage_ERROR</text><text id="ProcessOnText1118" fill="#000000" font-size="13" x="0.0" y="78.325" font-family="微软雅黑" font-weight="normal" font-style="normal" text-decoration="none" family="微软雅黑" text-anchor="middle" size="13">5 ChaincodeMessage_COMPLETED</text></g></g><g id="ProcessOnG1119" transform="matrix(1.0,0.0,0.0,1.0,734.0138854980469,414.78124237060547)" opacity="1.0"><path id="ProcessOnPath1120" d="M0.0 35.0C0.0 -11.666666666666666 70.0 -11.666666666666666 70.0 35.0C70.0 81.66666666666667 0.0 81.66666666666667 0.0 35.0Z" stroke="#323232" stroke-width="2.0" stroke-dasharray="none" opacity="1.0" fill="#ff0000"/><g id="ProcessOnG1121" transform="matrix(1.0,0.0,0.0,1.0,10.0,26.875)"><text id="ProcessOnText1122" fill="#000000" font-size="13" x="24.0" y="13.325" font-family="微软雅黑" font-weight="normal" font-style="normal" text-decoration="none" family="微软雅黑" text-anchor="middle" size="13">init</text></g></g></g></g></svg>